<svg width="31" height="32" viewBox="0 0 31 32" fill="none" xmlns="http://www.w3.org/2000/svg">
<path d="M5.16675 16L4.44851 15.3042L3.77446 16L4.44851 16.6958L5.16675 16ZM24.5417 17C25.094 17 25.5417 16.5523 25.5417 16C25.5417 15.4477 25.094 15 24.5417 15V16V17ZM12.9167 8L12.1985 7.3042L4.44851 15.3042L5.16675 16L5.88499 16.6958L13.635 8.6958L12.9167 8ZM5.16675 16L4.44851 16.6958L12.1985 24.6958L12.9167 24L13.635 23.3042L5.88499 15.3042L5.16675 16ZM5.16675 16V17H24.5417V16V15H5.16675V16Z" fill="#003F6B"/>
</svg>
